<svg xmlns="http://www.w3.org/2000/svg" width="23.93" height="23.92" viewBox="0 0 23.93 23.92"><defs><style>.cls-1{fill:#00cd3c;}</style></defs><g id="ticket-o"><path class="cls-1" d="M20.26,10.24h.5V5.34H3.31V18.58H20.76V13.69h-.5a1.73,1.73,0,1,1,0-3.45Zm-.5,4.4v2.94H15.51V14.84h-1v2.74H4.31V6.34h10.2V9.08h1V6.34h4.25V9.28a2.73,2.73,0,0,0,0,5.36Z"/><path class="cls-1" d="M10.32,8,9.79,8v3.62l-1.28-.19a2.28,2.28,0,1,0,2.28,2.28v-.14h0V9.16a1.73,1.73,0,0,1,1,1.74h1A2.66,2.66,0,0,0,10.32,8ZM8.51,15a1.29,1.29,0,0,1-.07-2.57l1.2.18a7.28,7.28,0,0,1,.15,1.11A1.28,1.28,0,0,1,8.51,15Z"/></g></svg>