<?xml version="1.0" encoding="UTF-8"?><svg id="a" xmlns="http://www.w3.org/2000/svg" width="128" height="50.25" viewBox="0 0 128 50.25"><defs><style>.b{fill:#00cd3c;}.c{fill:#ed4848;}.d{fill:#352f2f;}</style></defs><path class="c" d="M15.5,43.77c2.38,0,3.39-1.67,3.39-1.67l6.11-11.66v16.19s.34,2.82,3.05,2.82c2.78,.56,4.07-2.24,3.95-2.82V19.69s.17-2.34-2.5-3.18-4.5,1-4.5,1l-9,17.22L7,17.52s-1.83-1.84-4.5-1S0,19.69,0,19.69v26.94s.33,2.82,3,2.82h-.05c2.71,0,3.05-2.82,3.05-2.82V30.44l6.11,11.66s1.02,1.67,3.39,1.67Z"/><path class="c" d="M59.82,36.45c1.19-11.19-21.06-17.44-22.07,2.01,0,0,0,10.03,11.04,11.2,0,0,7.53,.84,10.03-4.35,.91-1.48-2.33-4.92-4.49-3.44-3.68,3.44-9.77,1.44-9.89-2.41h12.79s2.26-.5,2.59-3.01Zm-7.61-1.99h-7.44c.62-4.09,7.74-5.05,8.11,0h-.67Z"/><path class="c" d="M72,19.49c-.07-3.99-5.91-4.07-6,0v26.94c.07,3.99,5.91,4.07,6,0V19.49Z"/><path class="c" d="M118.08,32.12c4.08,0,3.92,4.85,3.92,4.85v9.53s.33,2.95,3.1,2.95h-.24c2.81,0,3.14-2.95,3.14-2.95v-10.42c0-2.47-.2-4.56-1.82-6.64-1.21-1.56-2.94-2.66-4.84-3.19-5.32-1.47-8.06,2.01-8.06,2.01,0,0-.99-2.51-3.64-1.84s-2.65,2.68-2.65,3.51v16.56s.33,2.95,3.14,2.95h.76c2.78,0,3.1-2.95,3.1-2.95v-9.53s0-4.85,4.08-4.85Z"/><circle class="b" cx="102.08" cy="20.14" r="4.92"/><path class="b" d="M89.04,24.18c-7.2,0-13.04,5.84-13.04,13.04s5.84,13.04,13.04,13.04,13.04-5.84,13.04-13.04-5.84-13.04-13.04-13.04Zm0,21.24c-4.53,0-8.21-3.67-8.21-8.21s3.67-8.21,8.21-8.21,8.21,3.67,8.21,8.21-3.67,8.21-8.21,8.21Z"/><circle class="c" cx="89.04" cy="37.22" r="8.21" transform="translate(-4.81 14.74) rotate(-9.22)"/><path class="d" d="M89.04,31.4v2.68c.74,0,1.34-.6,1.34-1.34s-.6-1.34-1.34-1.34Z"/><path class="d" d="M83.8,34.47l2.32,1.34c.37-.64,.15-1.46-.49-1.83s-1.46-.15-1.83,.49Z"/><path class="d" d="M83.84,40.55l2.32-1.34c-.37-.64-1.19-.86-1.83-.49s-.86,1.19-.49,1.83Z"/><path class="d" d="M89.12,43.55v-2.68c-.74,0-1.34,.6-1.34,1.34,0,.74,.6,1.34,1.34,1.34Z"/><path class="d" d="M94.36,40.48l-2.32-1.34c-.37,.64-.15,1.46,.49,1.83s1.46,.15,1.83-.49Z"/><path class="d" d="M94.32,34.41l-2.32,1.34c.37,.64,1.19,.86,1.83,.49s.86-1.19,.49-1.83Z"/><g><path class="b" d="M41.84,18.34c-.41,.07-.81,.01-1.19-.17-.38-.18-.66-.51-.85-.97l-3.1-6.53c-.04-.08-.07-.16-.09-.22-.02-.06-.04-.13-.05-.19-.07-.39,.02-.75,.26-1.07,.24-.32,.56-.51,.98-.58,.72-.12,1.21,.13,1.47,.76l1.81,4.63c.1,.23,.22,.33,.35,.31,.15-.03,.24-.15,.27-.38l.71-4.38c.07-.39,.23-.7,.48-.92,.25-.22,.53-.36,.84-.41s.62-.01,.94,.11c.32,.13,.56,.37,.71,.72l2.06,3.92c.1,.21,.22,.3,.35,.28s.21-.16,.23-.41l.21-4.97c.04-.68,.42-1.08,1.14-1.2,.41-.07,.78,0,1.11,.23,.33,.23,.52,.53,.59,.93,.01,.06,.02,.13,.02,.2,0,.07,0,.15-.01,.24l-.82,7.18c-.05,.5-.23,.9-.52,1.19-.3,.3-.65,.48-1.07,.55-.37,.06-.74,0-1.1-.17s-.67-.49-.93-.94l-1.95-3.63c-.11-.23-.22-.33-.35-.31-.15,.03-.24,.16-.27,.41l-.66,4.07c-.07,.5-.26,.9-.56,1.18-.3,.28-.64,.46-1.04,.52Z"/><path class="b" d="M58.43,15.58c-1.46,.24-2.72-.02-3.77-.8-1.06-.77-1.71-1.93-1.97-3.48s-.02-2.84,.71-3.89c.73-1.05,1.82-1.69,3.25-1.93,1.02-.17,1.97,.04,2.86,.63,.04-.28,.17-.52,.38-.73,.21-.21,.48-.35,.81-.4,.44-.07,.81,0,1.12,.2,.31,.21,.5,.48,.56,.83l1.23,7.41c.06,.37-.02,.7-.26,.98-.23,.28-.57,.46-1,.54-.72,.12-1.22-.12-1.5-.72-.59,.75-1.4,1.21-2.42,1.38Zm-.21-2.68c.7-.12,1.21-.44,1.55-.98,.34-.54,.45-1.15,.33-1.85s-.42-1.26-.91-1.63c-.49-.37-1.08-.49-1.77-.38s-1.19,.42-1.54,.93c-.35,.51-.47,1.12-.35,1.84s.43,1.24,.93,1.64c.5,.4,1.09,.54,1.76,.43Z"/><path class="b" d="M70.34,13.6c-.94,.16-1.75,.01-2.45-.43-.7-.44-1.14-1.23-1.33-2.36l-.59-3.53c-.04-.22-.16-.31-.38-.27l-.49,.08c-.39,.07-.71,0-.94-.21s-.38-.49-.45-.87c-.07-.39-.02-.73,.13-1.01,.15-.28,.43-.46,.82-.52l.49-.08c.22-.04,.31-.16,.27-.38l-.4-2.42c-.06-.37,.02-.71,.23-1.01,.22-.3,.53-.49,.95-.56s.78,0,1.09,.2c.31,.2,.5,.5,.57,.89l.4,2.42c.04,.22,.16,.31,.38,.27l1.21-.2c.37-.06,.7,.02,.99,.24,.29,.22,.47,.51,.53,.88s-.01,.7-.22,.98c-.21,.28-.51,.45-.9,.52l-1.17,.2c-.22,.04-.31,.16-.27,.38l.51,3.07c.07,.39,.18,.65,.35,.78,.17,.13,.36,.17,.58,.14,.09-.01,.26-.07,.51-.17,.25-.1,.41-.15,.48-.16,.35-.06,.66,.02,.95,.25,.28,.22,.45,.52,.52,.89,.05,.28,0,.56-.11,.82-.12,.27-.35,.48-.68,.65-.27,.13-.53,.24-.78,.33-.25,.09-.51,.15-.77,.2Z"/><path class="b" d="M79.18,12.13c-1.48,.25-2.8,.01-3.96-.7-1.16-.71-1.87-1.84-2.12-3.39s.02-2.95,.86-4.03c.84-1.08,2.01-1.74,3.51-1.99,1.07-.18,1.98-.13,2.74,.15s1.37,.69,1.82,1.24c.45,.55,.73,1.16,.84,1.84,.19,1.13-.22,1.78-1.22,1.95l-5.42,.9c-.18,.03-.24,.15-.21,.37,.08,.5,.43,.85,1.03,1.05,.6,.2,1.25,.24,1.95,.13,.43-.07,.86-.2,1.28-.4,.41-.19,.77-.43,1.05-.73,.19-.19,.41-.3,.65-.34,.33-.05,.62,.02,.89,.22s.43,.47,.48,.79c.07,.39-.08,.8-.44,1.21-.34,.39-.87,.75-1.58,1.07-.72,.32-1.44,.54-2.15,.66Zm.65-6.58s.1-.03,.17-.06,.1-.12,.08-.25c-.05-.33-.31-.59-.75-.8-.45-.2-.99-.26-1.62-.15-.67,.11-1.2,.35-1.58,.71-.37,.36-.54,.7-.49,1,.03,.15,.12,.21,.3,.18l3.88-.65Z"/><path class="b" d="M87.3,10.68c-.41,.07-.78,0-1.1-.19-.32-.19-.51-.47-.58-.84l-1.22-7.31c-.06-.35,.03-.67,.26-.97,.23-.3,.56-.48,1-.55,.39-.07,.73,0,1.02,.18s.48,.44,.58,.76c.18-.41,.45-.78,.82-1.11s.78-.53,1.24-.61c.28-.05,.56-.06,.83-.04,.32,.04,.6,.16,.84,.38,.24,.22,.38,.49,.44,.82,.08,.46,0,.86-.25,1.2-.25,.34-.57,.5-.98,.48-.29-.02-.58,0-.86,.04-.5,.08-.89,.33-1.15,.73-.27,.4-.35,1.14-.24,2.22l.54,3.26c.06,.37-.02,.7-.25,1-.23,.3-.54,.48-.93,.54Z"/></g></svg>